<?xml version="1.0" encoding="UTF-8"?>
<svg xmlns="http://www.w3.org/2000/svg" xmlns:xlink="http://www.w3.org/1999/xlink" width="px" height="150px" viewBox="0 0 131 150" version="1.1">
<g id="surface1">
<path style=" stroke:none;fill-rule:nonzero;fill:rgb(89.803922%,20.784314%,67.058824%);fill-opacity:1;" d="M 13.402344 112.449219 L 8.148438 109.421875 L 66.683594 8.238281 L 71.941406 11.265625 Z M 13.402344 112.449219 "/>
<path style=" stroke:none;fill-rule:nonzero;fill:rgb(89.803922%,20.784314%,67.058824%);fill-opacity:1;" d="M 6.945312 101.335938 L 124.019531 101.335938 L 124.019531 107.394531 L 6.945312 107.394531 Z M 6.945312 101.335938 "/>
<path style=" stroke:none;fill-rule:nonzero;fill:rgb(89.803922%,20.784314%,67.058824%);fill-opacity:1;" d="M 67.820312 138.484375 L 9.261719 104.738281 L 12.296875 99.496094 L 70.855469 133.238281 Z M 118.691406 50.539062 L 60.132812 16.796875 L 63.164062 11.554688 L 121.722656 45.296875 Z M 118.691406 50.539062 "/>
<path style=" stroke:none;fill-rule:nonzero;fill:rgb(89.803922%,20.784314%,67.058824%);fill-opacity:1;" d="M 12.3125 50.515625 L 9.277344 45.273438 L 67.835938 11.53125 L 70.871094 16.773438 Z M 12.3125 50.515625 "/>
<path style=" stroke:none;fill-rule:nonzero;fill:rgb(89.803922%,20.784314%,67.058824%);fill-opacity:1;" d="M 117.609375 112.449219 L 59.074219 11.265625 L 64.328125 8.238281 L 122.863281 109.421875 Z M 11.585938 41.257812 L 17.65625 41.257812 L 17.65625 108.742188 L 11.585938 108.742188 Z M 11.585938 41.257812 "/>
<path style=" stroke:none;fill-rule:nonzero;fill:rgb(89.803922%,20.784314%,67.058824%);fill-opacity:1;" d="M 113.347656 41.257812 L 119.414062 41.257812 L 119.414062 108.742188 L 113.347656 108.742188 Z M 113.347656 41.257812 "/>
<path style=" stroke:none;fill-rule:nonzero;fill:rgb(89.803922%,20.784314%,67.058824%);fill-opacity:1;" d="M 66.789062 135.917969 L 64.136719 131.339844 L 115.066406 101.992188 L 117.71875 106.570312 Z M 66.789062 135.917969 "/>
<path style=" stroke:none;fill-rule:nonzero;fill:rgb(89.803922%,20.784314%,67.058824%);fill-opacity:1;" d="M 127.453125 110.710938 C 123.945312 116.804688 116.125 118.882812 110.019531 115.382812 C 103.914062 111.878906 101.832031 104.074219 105.339844 97.980469 C 108.851562 91.890625 116.671875 89.808594 122.777344 93.3125 C 128.917969 96.851562 131 104.621094 127.453125 110.710938 M 25.621094 52.019531 C 22.113281 58.109375 14.292969 60.191406 8.1875 56.6875 C 2.082031 53.1875 0 45.378906 3.507812 39.289062 C 7.019531 33.195312 14.839844 31.117188 20.945312 34.617188 C 27.046875 38.15625 29.132812 45.925781 25.621094 52.019531 M 3.546875 110.710938 C 0.0351562 104.621094 2.121094 96.851562 8.222656 93.3125 C 14.328125 89.808594 22.113281 91.890625 25.660156 97.980469 C 29.167969 104.074219 27.085938 111.84375 20.980469 115.382812 C 14.839844 118.882812 7.054688 116.804688 3.546875 110.710938 M 105.378906 52.019531 C 101.867188 45.925781 103.953125 38.15625 110.054688 34.617188 C 116.160156 31.117188 123.945312 33.195312 127.492188 39.289062 C 131 45.378906 128.917969 53.148438 122.8125 56.6875 C 116.707031 60.191406 108.886719 58.109375 105.378906 52.019531 M 65.5 146.425781 C 58.445312 146.425781 52.742188 140.734375 52.742188 133.695312 C 52.742188 126.652344 58.445312 120.964844 65.5 120.964844 C 72.554688 120.964844 78.257812 126.652344 78.257812 133.695312 C 78.257812 140.699219 72.554688 146.425781 65.5 146.425781 M 65.5 29.035156 C 58.445312 29.035156 52.742188 23.347656 52.742188 16.304688 C 52.742188 9.265625 58.445312 3.574219 65.5 3.574219 C 72.554688 3.574219 78.257812 9.265625 78.257812 16.304688 C 78.257812 23.347656 72.554688 29.035156 65.5 29.035156 "/>
</g>
</svg>
