<?xml version="1.0" encoding="UTF-8"?>
<svg xmlns="http://www.w3.org/2000/svg" xmlns:xlink="http://www.w3.org/1999/xlink" width="px" height="150px" viewBox="0 0 145 149" version="1.1">
<g id="surface1">
<path style=" stroke:none;fill-rule:nonzero;fill:rgb(0%,0%,0%);fill-opacity:1;" d="M 144.4375 89.214844 C 143.570312 86.589844 141.292969 84.761719 138.347656 84.324219 C 136.957031 84.117188 135.367188 84.207031 133.484375 84.59375 C 130.203125 85.265625 127.769531 85.523438 125.992188 85.574219 C 132.699219 74.296875 138.148438 61.433594 141.289062 49.328125 C 146.363281 29.75 143.652344 20.832031 140.480469 16.796875 C 132.09375 6.121094 119.859375 0.386719 105.097656 0.210938 C 97.222656 0.113281 90.308594 1.664062 86.703125 2.777344 C 83.347656 2.1875 79.734375 1.855469 75.949219 1.796875 C 68.847656 1.683594 62.574219 3.226562 57.210938 6.394531 C 54.242188 5.394531 49.480469 3.984375 43.980469 3.085938 C 31.042969 0.96875 20.613281 2.617188 12.988281 7.988281 C 3.75 14.488281 -0.53125 25.78125 0.261719 41.554688 C 0.511719 46.5625 3.324219 61.800781 7.75 76.25 C 10.296875 84.554688 13.007812 91.453125 15.816406 96.753906 C 19.796875 104.265625 24.054688 108.691406 28.835938 110.28125 C 31.515625 111.171875 36.382812 111.792969 41.503906 107.542969 C 42.152344 108.328125 43.019531 109.105469 44.167969 109.828125 C 45.628906 110.746094 47.414062 111.496094 49.195312 111.9375 C 55.621094 113.539062 61.636719 113.136719 66.769531 110.894531 C 66.800781 111.804688 66.824219 112.675781 66.847656 113.425781 C 66.878906 114.640625 66.914062 115.835938 66.957031 116.953125 C 67.261719 124.5 67.777344 130.367188 69.304688 134.472656 C 69.390625 134.699219 69.503906 135.042969 69.621094 135.410156 C 70.382812 137.734375 71.65625 141.625 74.898438 144.671875 C 78.253906 147.828125 82.3125 148.792969 86.03125 148.792969 C 87.894531 148.792969 89.675781 148.550781 91.234375 148.21875 C 96.796875 147.03125 103.113281 145.222656 107.683594 138.738281 C 112.003906 132.609375 114.105469 123.378906 114.484375 108.832031 C 114.535156 108.421875 114.578125 108.03125 114.625 107.65625 L 114.714844 106.886719 L 115.730469 106.976562 L 115.992188 106.992188 C 121.660156 107.25 128.585938 106.054688 132.839844 104.085938 C 136.203125 102.53125 146.972656 96.863281 144.4375 89.214844 "/>
<path style=" stroke:none;fill-rule:nonzero;fill:rgb(20%,40.392157%,56.862745%);fill-opacity:1;" d="M 134.75 90.703125 C 117.90625 94.164062 116.75 88.480469 116.75 88.480469 C 134.535156 62.1875 141.96875 28.8125 135.554688 20.640625 C 118.046875 -1.640625 87.75 8.898438 87.242188 9.171875 L 87.082031 9.199219 C 83.753906 8.511719 80.027344 8.101562 75.84375 8.035156 C 68.21875 7.910156 62.4375 10.023438 58.050781 13.339844 C 58.050781 13.339844 4 -8.847656 6.511719 41.242188 C 7.046875 51.898438 21.84375 121.871094 39.488281 100.734375 C 45.9375 93.007812 52.171875 86.472656 52.171875 86.472656 C 55.265625 88.519531 58.96875 89.566406 62.855469 89.191406 L 63.15625 88.9375 C 63.0625 89.894531 63.105469 90.835938 63.277344 91.945312 C 58.730469 97.003906 60.066406 97.894531 50.980469 99.757812 C 41.785156 101.644531 47.1875 105.007812 50.714844 105.886719 C 54.988281 106.953125 64.878906 108.460938 71.5625 99.136719 L 71.296875 100.203125 C 73.078125 101.625 74.328125 109.449219 74.121094 116.539062 C 73.910156 123.632812 73.769531 128.503906 75.171875 132.308594 C 76.578125 136.109375 77.976562 144.667969 89.921875 142.117188 C 99.90625 139.988281 105.078125 134.464844 105.796875 125.25 C 106.308594 118.699219 107.464844 119.667969 107.535156 113.8125 L 108.464844 111.039062 C 109.53125 102.160156 108.632812 99.296875 114.78125 100.628906 L 116.277344 100.761719 C 120.804688 100.964844 126.726562 100.035156 130.207031 98.425781 C 137.691406 94.964844 142.132812 89.183594 134.75 90.703125 "/>
<path style=" stroke:none;fill-rule:nonzero;fill:rgb(100%,100%,100%);fill-opacity:1;" d="M 61.214844 46.007812 C 59.695312 45.796875 58.324219 45.992188 57.625 46.515625 C 57.234375 46.8125 57.113281 47.152344 57.082031 47.390625 C 56.996094 48.011719 57.433594 48.703125 57.703125 49.058594 C 58.464844 50.066406 59.578125 50.757812 60.679688 50.910156 C 60.839844 50.929688 61 50.941406 61.15625 50.941406 C 62.996094 50.941406 64.667969 49.515625 64.8125 48.464844 C 65 47.144531 63.078125 46.265625 61.214844 46.007812 M 111.503906 46.050781 C 111.359375 45.015625 109.511719 44.722656 107.761719 44.964844 C 106.011719 45.207031 104.316406 45.992188 104.457031 47.027344 C 104.570312 47.835938 106.03125 49.210938 107.757812 49.210938 C 107.90625 49.210938 108.050781 49.199219 108.199219 49.179688 C 109.351562 49.019531 110.199219 48.289062 110.601562 47.871094 C 111.214844 47.226562 111.566406 46.515625 111.503906 46.050781 "/>
<path style=" stroke:none;fill-rule:nonzero;fill:rgb(100%,100%,100%);fill-opacity:1;" d="M 140.355469 90.308594 C 139.714844 88.371094 137.648438 87.75 134.210938 88.457031 C 124.015625 90.554688 120.363281 89.101562 119.164062 88.222656 C 127.089844 76.191406 133.609375 61.644531 137.128906 48.078125 C 138.796875 41.648438 139.714844 35.679688 139.789062 30.8125 C 139.875 25.472656 138.960938 21.546875 137.078125 19.152344 C 129.488281 9.488281 118.347656 4.304688 104.859375 4.160156 C 95.589844 4.058594 87.753906 6.421875 86.238281 7.085938 C 83.039062 6.292969 79.550781 5.808594 75.757812 5.746094 C 68.796875 5.632812 62.78125 7.292969 57.800781 10.675781 C 55.636719 9.875 50.042969 7.960938 43.207031 6.863281 C 31.382812 4.96875 21.988281 6.40625 15.285156 11.136719 C 7.285156 16.785156 3.59375 26.878906 4.308594 41.136719 C 4.550781 45.933594 7.292969 60.695312 11.621094 74.828125 C 17.320312 93.429688 23.515625 103.960938 30.035156 106.128906 C 30.796875 106.382812 31.679688 106.558594 32.648438 106.558594 C 35.027344 106.558594 37.941406 105.492188 40.972656 101.855469 C 44.675781 97.433594 48.5 93.121094 52.449219 88.917969 C 55.011719 90.289062 57.828125 91.054688 60.707031 91.132812 C 60.710938 91.207031 60.71875 91.28125 60.726562 91.355469 C 60.230469 91.945312 59.746094 92.542969 59.269531 93.148438 C 57.277344 95.671875 56.859375 96.195312 50.441406 97.511719 C 48.613281 97.890625 43.761719 98.886719 43.691406 102.273438 C 43.613281 105.976562 49.425781 107.53125 50.085938 107.695312 C 52.394531 108.269531 54.617188 108.554688 56.738281 108.554688 C 61.894531 108.554688 66.429688 106.867188 70.058594 103.597656 C 69.945312 116.796875 70.5 129.800781 72.089844 133.765625 C 73.390625 137.007812 76.574219 144.933594 86.625 144.933594 C 88.101562 144.933594 89.722656 144.761719 91.507812 144.382812 C 102 142.140625 106.554688 137.523438 108.316406 127.335938 C 109.261719 121.894531 110.878906 108.898438 111.640625 101.925781 C 113.246094 102.425781 115.3125 102.652344 117.550781 102.652344 C 122.210938 102.652344 127.59375 101.664062 130.964844 100.105469 C 134.757812 98.351562 141.597656 94.046875 140.355469 90.308594 Z M 115.375 43.195312 C 115.339844 45.253906 115.054688 47.125 114.753906 49.074219 C 114.429688 51.171875 114.09375 53.339844 114.011719 55.972656 C 113.925781 58.535156 114.25 61.199219 114.558594 63.773438 C 115.1875 68.976562 115.832031 74.335938 113.335938 79.621094 C 112.921875 78.890625 112.554688 78.132812 112.234375 77.359375 C 111.921875 76.609375 111.25 75.40625 110.320312 73.746094 C 106.695312 67.269531 98.207031 52.101562 102.550781 45.914062 C 103.84375 44.070312 107.128906 42.175781 115.375 43.195312 Z M 105.382812 8.328125 C 117.464844 8.59375 127.023438 13.097656 133.789062 21.714844 C 138.980469 28.324219 133.265625 58.394531 116.71875 84.339844 C 116.554688 84.128906 116.386719 83.917969 116.21875 83.707031 L 116.007812 83.449219 C 120.285156 76.410156 119.449219 69.449219 118.703125 63.277344 C 118.398438 60.746094 118.109375 58.355469 118.183594 56.105469 C 118.257812 53.726562 118.574219 51.683594 118.878906 49.707031 C 119.253906 47.273438 119.636719 44.753906 119.53125 41.785156 C 119.613281 41.472656 119.644531 41.105469 119.601562 40.667969 C 119.332031 37.824219 116.070312 29.300781 109.421875 21.589844 C 105.78125 17.371094 100.480469 12.648438 93.234375 9.464844 C 96.351562 8.824219 100.609375 8.222656 105.382812 8.328125 Z M 37.765625 99.199219 C 34.421875 103.203125 32.113281 102.433594 31.355469 102.183594 C 26.410156 100.539062 20.671875 90.125 15.617188 73.613281 C 11.238281 59.324219 8.679688 44.957031 8.476562 40.929688 C 7.839844 28.1875 10.9375 19.308594 17.691406 14.535156 C 28.683594 6.769531 46.75 11.417969 54.011719 13.777344 C 53.910156 13.878906 53.800781 13.972656 53.695312 14.078125 C 41.78125 26.066406 42.0625 46.550781 42.09375 47.804688 C 42.09375 48.285156 42.132812 48.96875 42.1875 49.910156 C 42.394531 53.355469 42.777344 59.769531 41.757812 67.027344 C 40.808594 73.777344 42.898438 80.382812 47.484375 85.148438 C 47.953125 85.636719 48.449219 86.101562 48.964844 86.542969 C 46.925781 88.71875 42.488281 93.539062 37.765625 99.199219 Z M 50.496094 82.273438 C 46.800781 78.429688 45.121094 73.082031 45.890625 67.605469 C 46.964844 59.933594 46.570312 53.253906 46.355469 49.664062 C 46.324219 49.164062 46.300781 48.722656 46.285156 48.375 C 48.023438 46.835938 56.089844 42.53125 61.84375 43.84375 C 64.46875 44.441406 66.066406 46.222656 66.730469 49.289062 C 70.171875 65.148438 67.1875 71.757812 64.789062 77.070312 C 64.292969 78.164062 63.828125 79.199219 63.429688 80.269531 L 63.117188 81.09375 C 62.335938 83.1875 61.609375 85.132812 61.15625 86.976562 C 57.226562 86.964844 53.402344 85.292969 50.496094 82.269531 Z M 51.101562 103.660156 C 49.953125 103.375 48.921875 102.878906 48.316406 102.46875 C 48.820312 102.230469 49.722656 101.90625 51.28125 101.585938 C 58.835938 100.039062 60.003906 98.945312 62.550781 95.722656 C 63.132812 94.980469 63.796875 94.144531 64.714844 93.125 L 64.714844 93.121094 C 66.082031 91.597656 66.707031 91.859375 67.839844 92.328125 C 68.757812 92.703125 69.652344 93.851562 70.011719 95.113281 C 70.183594 95.707031 70.378906 96.839844 69.746094 97.71875 C 64.425781 105.144531 56.667969 105.050781 51.101562 103.660156 Z M 90.632812 140.316406 C 81.394531 142.289062 78.121094 137.589844 75.964844 132.21875 C 74.574219 128.75 73.890625 113.117188 74.375 95.847656 C 74.378906 95.621094 74.347656 95.398438 74.285156 95.1875 C 74.226562 94.777344 74.140625 94.367188 74.027344 93.96875 C 73.304688 91.457031 71.546875 89.355469 69.4375 88.484375 C 68.597656 88.136719 67.058594 87.503906 65.210938 87.972656 C 65.605469 86.355469 66.289062 84.527344 67.03125 82.546875 L 67.339844 81.714844 C 67.691406 80.777344 68.128906 79.804688 68.59375 78.777344 C 71.105469 73.21875 74.542969 65.605469 70.8125 48.410156 C 69.414062 41.96875 64.746094 38.820312 57.667969 39.550781 C 53.425781 39.988281 49.546875 41.695312 47.609375 42.671875 C 47.191406 42.882812 46.8125 43.085938 46.457031 43.285156 C 46.996094 36.792969 49.039062 24.664062 56.675781 16.992188 C 61.484375 12.160156 67.886719 9.773438 75.6875 9.902344 C 91.058594 10.152344 100.917969 18.015625 106.480469 24.566406 C 111.273438 30.207031 113.871094 35.894531 114.90625 38.960938 C 107.117188 38.171875 101.816406 39.703125 99.132812 43.53125 C 93.289062 51.851562 102.328125 68.007812 106.671875 75.769531 C 107.46875 77.191406 108.15625 78.421875 108.375 78.945312 C 109.789062 82.359375 111.621094 84.640625 112.957031 86.308594 C 113.367188 86.816406 113.765625 87.3125 114.066406 87.746094 C 111.707031 88.421875 107.46875 89.988281 107.855469 97.816406 C 107.542969 101.742188 105.328125 120.132812 104.203125 126.628906 C 102.71875 135.214844 99.546875 138.410156 90.632812 140.316406 Z M 129.210938 96.332031 C 126.796875 97.449219 122.757812 98.285156 118.921875 98.464844 C 114.6875 98.664062 112.527344 97.992188 112.023438 97.582031 C 111.785156 92.703125 113.605469 92.191406 115.535156 91.652344 C 115.835938 91.566406 116.132812 91.484375 116.417969 91.386719 C 116.597656 91.53125 116.789062 91.671875 117.003906 91.8125 C 120.410156 94.050781 126.480469 94.292969 135.058594 92.53125 L 135.152344 92.511719 C 133.996094 93.589844 132.015625 95.035156 129.210938 96.332031 Z M 129.210938 96.332031 "/>
</g>
</svg>
