<?xml version="1.0" encoding="UTF-8"?>
<svg xmlns="http://www.w3.org/2000/svg" xmlns:xlink="http://www.w3.org/1999/xlink" width="px" height="150px" viewBox="0 0 150 150" version="1.1">
<defs>
<linearGradient id="linear0" gradientUnits="userSpaceOnUse" x1="0.12959" y1="0.12039" x2="0.79639" y2="0.78201" gradientTransform="matrix(110.898438,0,0,111.644531,0.0859375,0.0429688)">
<stop offset="0" style="stop-color:rgb(21.960784%,49.411765%,72.156863%);stop-opacity:1;"/>
<stop offset="1" style="stop-color:rgb(21.176471%,41.176471%,58.039216%);stop-opacity:1;"/>
</linearGradient>
<linearGradient id="linear1" gradientUnits="userSpaceOnUse" x1="0.19128" y1="0.20579" x2="0.90742" y2="0.88429" gradientTransform="matrix(110.898438,0,0,111.644531,38.808594,37.839844)">
<stop offset="0" style="stop-color:rgb(100%,87.843137%,32.156863%);stop-opacity:1;"/>
<stop offset="1" style="stop-color:rgb(100%,76.470588%,19.215686%);stop-opacity:1;"/>
</linearGradient>
</defs>
<g id="surface1">
<path style=" stroke:none;fill-rule:nonzero;fill:url(#linear0);" d="M 74.359375 0.0429688 C 36.375 0.0429688 38.746094 16.582031 38.746094 16.582031 L 38.789062 33.714844 L 75.035156 33.714844 L 75.035156 38.859375 L 24.390625 38.859375 C 24.390625 38.859375 0.0859375 36.089844 0.0859375 74.570312 C 0.0859375 113.050781 21.300781 111.6875 21.300781 111.6875 L 33.960938 111.6875 L 33.960938 93.828125 C 33.960938 93.828125 33.277344 72.53125 54.835938 72.53125 L 90.789062 72.53125 C 90.789062 72.53125 110.984375 72.859375 110.984375 52.929688 L 110.984375 19.980469 C 110.984375 19.980469 114.054688 0.0429688 74.359375 0.0429688 Z M 54.371094 11.566406 C 56.101562 11.5625 57.761719 12.253906 58.984375 13.480469 C 60.207031 14.707031 60.894531 16.375 60.890625 18.113281 C 60.894531 19.847656 60.207031 21.515625 58.984375 22.742188 C 57.761719 23.972656 56.101562 24.660156 54.371094 24.660156 C 52.640625 24.660156 50.980469 23.972656 49.757812 22.742188 C 48.535156 21.515625 47.847656 19.847656 47.851562 18.113281 C 47.847656 16.375 48.535156 14.707031 49.757812 13.480469 C 50.980469 12.253906 52.640625 11.5625 54.371094 11.566406 Z M 54.371094 11.566406 "/>
<path style=" stroke:none;fill-rule:nonzero;fill:url(#linear1);" d="M 75.4375 149.484375 C 113.421875 149.484375 111.046875 132.949219 111.046875 132.949219 L 111.007812 115.8125 L 74.757812 115.8125 L 74.757812 110.671875 L 125.402344 110.671875 C 125.402344 110.671875 149.707031 113.4375 149.707031 74.957031 C 149.707031 36.476562 128.492188 37.839844 128.492188 37.839844 L 115.832031 37.839844 L 115.832031 55.699219 C 115.832031 55.699219 116.515625 76.996094 94.957031 76.996094 L 59.007812 76.996094 C 59.007812 76.996094 38.808594 76.671875 38.808594 96.597656 L 38.808594 129.546875 C 38.808594 129.546875 35.742188 149.484375 75.4375 149.484375 Z M 95.421875 137.964844 C 93.691406 137.964844 92.035156 137.277344 90.8125 136.050781 C 89.585938 134.820312 88.902344 133.15625 88.902344 131.417969 C 88.902344 129.679688 89.585938 128.015625 90.808594 126.785156 C 92.035156 125.558594 93.691406 124.867188 95.421875 124.871094 C 97.152344 124.867188 98.8125 125.558594 100.035156 126.785156 C 101.257812 128.015625 101.945312 129.679688 101.945312 131.417969 C 101.945312 133.152344 101.257812 134.820312 100.035156 136.046875 C 98.8125 137.277344 97.152344 137.964844 95.421875 137.964844 Z M 95.421875 137.964844 "/>
</g>
</svg>
