<?xml version="1.0" encoding="UTF-8"?>
<svg xmlns="http://www.w3.org/2000/svg" xmlns:xlink="http://www.w3.org/1999/xlink" width="px" height="150px" viewBox="0 0 150 150" version="1.1">
<g id="surface1">
<path style=" stroke:none;fill-rule:evenodd;fill:rgb(0%,84.705882%,100%);fill-opacity:1;" d="M 88.394531 74.875 C 88.394531 82.273438 82.398438 88.269531 75 88.269531 C 67.601562 88.269531 61.605469 82.273438 61.605469 74.875 C 61.605469 67.476562 67.601562 61.480469 75 61.480469 C 82.398438 61.480469 88.394531 67.476562 88.394531 74.875 Z M 88.394531 74.875 "/>
<path style="fill:none;stroke-width:24;stroke-linecap:butt;stroke-linejoin:miter;stroke:rgb(0%,84.705882%,100%);stroke-opacity:1;stroke-miterlimit:4;" d="M 269.526966 135.622776 C 336.884176 135.622776 399.457327 145.293305 446.63956 161.532772 C 503.477692 181.107912 538.42912 210.763226 538.42912 237.624181 C 538.42912 265.611657 501.385581 297.125 440.348596 317.358497 C 394.205103 332.647004 333.460721 340.635066 269.526966 340.635066 C 203.969265 340.635066 141.893539 333.129799 95.223361 317.182935 C 36.190707 297.007959 0.624813 265.084972 0.624813 237.624181 C 0.624813 210.982678 33.996184 181.546816 90.029658 162.015566 C 137.387453 145.498127 201.5114 135.622776 269.526966 135.622776 Z M 269.526966 135.622776 " transform="matrix(0.267,0,0,0.267,3.0363,11.429344)"/>
<path style="fill:none;stroke-width:24;stroke-linecap:butt;stroke-linejoin:miter;stroke:rgb(0%,84.705882%,100%);stroke-opacity:1;stroke-miterlimit:4;" d="M 180.736587 186.916081 C 214.385932 128.571044 254.019007 79.194288 291.662383 46.437383 C 337.001217 6.979869 380.160159 -8.484199 403.436728 4.931648 C 427.678886 18.918071 436.471606 66.744031 423.494663 129.726826 C 413.692463 177.347963 390.269593 233.952013 358.317346 289.32713 C 325.57507 346.121372 288.077996 396.156484 250.946676 428.606156 C 203.969265 469.672987 158.54265 484.537219 134.754026 470.814139 C 111.68228 457.515332 102.8603 413.902856 113.920693 355.587079 C 123.283989 306.312734 146.750749 245.846325 180.721957 186.916081 Z M 180.736587 186.916081 " transform="matrix(0.267,0,0,0.267,3.0363,11.429344)"/>
<path style="fill:none;stroke-width:24;stroke-linecap:butt;stroke-linejoin:miter;stroke:rgb(0%,84.705882%,100%);stroke-opacity:1;stroke-miterlimit:4;" d="M 180.824368 289.488062 C 147.072612 231.201545 124.103277 172.198151 114.505899 123.231039 C 102.962711 64.227645 111.126334 19.122893 134.373642 5.663155 C 158.60117 -8.367158 204.4228 7.901568 252.512102 50.606976 C 288.868024 82.881086 326.204167 131.438553 358.244195 186.76978 C 391.074251 243.505501 415.696793 300.98736 425.279541 349.354635 C 437.393305 410.567182 427.576475 457.339771 403.817111 471.092111 C 380.759995 484.449438 338.566643 470.316713 293.578933 431.590707 C 255.569803 398.892322 214.897987 348.345154 180.824368 289.488062 Z M 180.824368 289.488062 " transform="matrix(0.267,0,0,0.267,3.0363,11.429344)"/>
</g>
</svg>
