<?xml version="1.0" encoding="UTF-8"?>
<svg xmlns="http://www.w3.org/2000/svg" xmlns:xlink="http://www.w3.org/1999/xlink" width="px" height="150px" viewBox="0 0 150 150" version="1.1">
<g id="surface1">
<path style=" stroke:none;fill-rule:nonzero;fill:rgb(0%,47.843137%,80%);fill-opacity:1;" d="M 0 75 L 0 150 L 150.003906 150 L 150.003906 -0.00390625 L 0 -0.00390625 Z M 120.882812 69.023438 C 124.691406 69.976562 127.597656 71.667969 130.265625 74.429688 C 131.648438 75.90625 133.695312 78.59375 133.859375 79.238281 C 133.90625 79.425781 127.386719 83.808594 123.429688 86.261719 C 123.289062 86.355469 122.714844 85.738281 122.070312 84.785156 C 120.144531 81.972656 118.121094 80.761719 115.023438 80.546875 C 110.476562 80.238281 107.523438 82.621094 107.570312 86.59375 C 107.570312 87.761719 107.734375 88.449219 108.214844 89.40625 C 109.214844 91.480469 111.074219 92.714844 116.902344 95.242188 C 127.644531 99.859375 132.238281 102.90625 135.089844 107.242188 C 138.277344 112.074219 138.996094 119.792969 136.832031 125.527344 C 134.449219 131.769531 128.546875 136.003906 120.238281 137.410156 C 117.664062 137.863281 111.570312 137.792969 108.808594 137.292969 C 102.785156 136.222656 97.070312 133.246094 93.546875 129.34375 C 92.164062 127.820312 89.476562 123.839844 89.640625 123.554688 C 89.710938 123.460938 90.332031 123.078125 91.023438 122.671875 L 96.59375 119.460938 L 100.90625 116.960938 L 101.8125 118.296875 C 103.074219 120.226562 105.835938 122.867188 107.503906 123.746094 C 112.289062 126.273438 118.859375 125.914062 122.097656 123.007812 C 123.480469 121.75 124.050781 120.4375 124.050781 118.507812 C 124.050781 116.769531 123.839844 116.007812 122.933594 114.699219 C 121.765625 113.035156 119.382812 111.628906 112.621094 108.699219 C 104.878906 105.367188 101.546875 103.296875 98.5 100.011719 C 96.738281 98.105469 95.070312 95.058594 94.378906 92.511719 C 93.808594 90.390625 93.664062 85.082031 94.117188 82.9375 C 95.710938 75.4375 101.355469 70.246094 109.5 68.699219 C 112.144531 68.199219 118.289062 68.390625 120.882812 69.03125 Z M 85.667969 75.28125 L 85.714844 81.421875 L 66.191406 81.421875 L 66.191406 136.898438 L 52.382812 136.898438 L 52.382812 81.421875 L 32.859375 81.421875 L 32.859375 75.398438 L 33.023438 69.210938 C 33.09375 69.117188 44.976562 69.070312 59.382812 69.09375 L 85.597656 69.164062 Z M 85.667969 75.28125 "/>
</g>
</svg>
